<?xml version="1.0" standalone="no"?>
<!DOCTYPE svg PUBLIC "-//W3C//DTD SVG 20010904//EN"
 "http://www.w3.org/TR/2001/REC-SVG-20010904/DTD/svg10.dtd">
<svg version="1.0" xmlns="http://www.w3.org/2000/svg"
 width="1999.000000pt" height="1643.000000pt" viewBox="0 0 1999.000000 1643.000000"
 preserveAspectRatio="xMidYMid meet">

<g transform="translate(0.000000,1643.000000) scale(0.100000,-0.100000)"
fill="#000000" stroke="none">
<path d="M9725 16089 c-354 -18 -550 -43 -870 -109 -748 -156 -1594 -470
-2356 -876 -706 -375 -1156 -711 -1745 -1300 -1073 -1074 -1778 -2298 -2119
-3679 -158 -639 -228 -1241 -228 -1960 0 -1252 227 -2318 725 -3405 146 -319
294 -594 535 -993 78 -131 143 -240 143 -243 0 -2 -37 -4 -83 -4 -93 0 -162
-17 -250 -61 -116 -59 -174 -136 -202 -267 -34 -164 -38 -266 -44 -1217 l-6
-950 -990 -6 c-1067 -6 -1075 -6 -1160 -59 -172 -107 -186 -364 -28 -540 25
-28 65 -62 89 -76 43 -25 52 -26 286 -35 555 -20 3567 -29 10624 -29 l7471 0
67 59 c76 67 95 90 125 148 48 96 67 272 35 336 -9 18 -53 69 -97 115 l-82 82
-1041 0 -1041 0 -6 758 c-7 732 -18 1138 -37 1284 -13 104 -57 187 -149 278
-84 83 -179 139 -271 160 -106 24 -159 40 -165 51 -7 10 39 91 229 404 320
527 676 1384 871 2095 249 914 329 2121 205 3126 -173 1404 -865 3006 -1770
4095 -134 160 -652 678 -890 890 -348 308 -570 479 -867 668 -1153 734 -2509
1170 -3918 1261 -180 11 -763 11 -990 -1z m1380 -1099 c419 -27 715 -85 1117
-216 616 -202 1198 -490 1603 -794 694 -521 1251 -1229 1602 -2040 237 -544
407 -1257 420 -1754 l6 -210 -244 225 c-460 423 -879 785 -1234 1064 -253 198
-395 319 -395 335 0 8 25 44 55 80 117 138 199 247 217 288 19 43 19 43 -2 86
-39 82 -152 176 -210 176 -47 0 -251 -230 -302 -342 -22 -46 -25 -48 -57 -44
-41 6 -127 60 -288 179 l-123 90 83 121 c104 151 162 248 182 306 l16 44 -69
66 c-77 75 -123 100 -178 100 -32 0 -45 -7 -83 -48 -25 -26 -70 -92 -100 -147
-72 -131 -113 -195 -127 -195 -12 0 -185 117 -335 226 -52 37 -96 69 -97 70
-2 1 40 66 92 143 121 175 150 236 144 300 -6 57 -36 101 -97 142 -110 72
-194 19 -340 -215 -40 -64 -76 -118 -80 -120 -11 -7 -144 85 -324 223 l-148
113 28 33 c181 217 213 273 213 370 0 97 -41 146 -134 164 -96 18 -151 -19
-267 -175 -71 -96 -116 -138 -160 -149 -22 -5 -36 2 -85 46 -116 102 -655 498
-1224 899 -151 106 -326 230 -389 274 -131 92 -191 146 -191 169 0 24 48 45
153 67 87 19 316 46 437 53 143 8 773 6 915 -3z m-1770 -477 c72 -38 199 -124
760 -516 769 -538 1128 -797 1163 -840 17 -20 -6 -67 -101 -202 -74 -106 -127
-197 -127 -222 0 -39 82 -152 134 -184 34 -21 90 -25 130 -9 48 18 109 86 198
218 48 72 94 132 102 132 16 0 160 -96 241 -160 139 -112 192 -189 174 -253
-5 -16 -37 -60 -72 -96 -79 -82 -98 -118 -105 -197 -4 -51 -1 -71 18 -109 25
-51 89 -100 145 -111 81 -15 168 61 273 239 39 65 70 107 80 107 38 0 365
-240 382 -280 17 -42 3 -76 -100 -238 -49 -77 -92 -151 -95 -165 -15 -59 73
-183 149 -212 34 -13 51 -14 82 -6 83 22 139 82 234 252 34 60 66 109 70 109
11 0 255 -183 299 -224 62 -58 60 -75 -33 -225 -97 -158 -120 -209 -120 -276
-1 -49 4 -66 22 -90 66 -83 148 -104 237 -60 63 30 107 80 181 205 26 43 60
93 76 111 34 37 21 42 193 -87 459 -345 1442 -1218 1499 -1332 20 -39 15 -49
-33 -69 -130 -55 -1138 -20 -1691 58 -227 32 -598 132 -889 241 -1378 513
-2434 1499 -3080 2878 -184 392 -362 922 -431 1285 -21 109 -42 333 -33 347 7
12 14 10 68 -19z m-2704 -2589 c100 -30 186 -81 270 -161 77 -74 83 -83 183
-282 148 -294 400 -852 426 -941 7 -25 4 -29 -64 -65 -176 -94 -273 -168 -325
-246 -48 -71 -89 -190 -100 -290 -21 -179 -39 -164 -238 196 -252 454 -501
954 -577 1158 -108 289 -81 442 100 562 122 81 216 101 325 69z m-1997 -242
c89 -42 137 -89 366 -362 327 -391 1397 -1714 2313 -2861 l269 -336 101 -48
c389 -181 1057 -482 1332 -600 303 -130 483 -193 572 -202 54 -5 67 -3 106 20
116 68 180 213 147 332 -15 53 -78 128 -154 184 -148 109 -447 258 -1171 586
-253 115 -466 213 -472 218 -21 15 -438 598 -544 760 -172 261 -185 337 -91
530 42 85 62 114 114 162 85 79 169 117 269 123 67 4 84 1 134 -22 159 -72
306 -244 468 -544 33 -59 74 -129 93 -155 50 -69 91 -88 983 -474 1035 -447
1643 -721 2071 -935 347 -172 408 -208 567 -326 165 -123 303 -244 470 -414
270 -273 383 -430 529 -733 134 -277 188 -512 226 -975 14 -166 16 -1635 3
-1946 l-7 -162 -477 -7 c-609 -10 -1627 0 -2026 19 -170 9 -329 16 -352 16
l-43 0 0 875 0 875 -57 63 c-105 115 -181 161 -633 387 -351 175 -408 203
-1463 696 l-819 382 -166 203 c-239 294 -892 1097 -1217 1499 -154 190 -583
719 -955 1175 -936 1148 -1041 1283 -1108 1424 -32 66 -36 84 -35 146 4 208
150 392 354 450 36 10 84 14 145 11 77 -3 102 -8 158 -34z m1073 -5557 c32
-22 56 -79 92 -228 42 -172 77 -280 101 -310 25 -32 109 -61 254 -87 173 -32
253 -59 294 -97 31 -29 34 -37 29 -70 -5 -29 -18 -49 -56 -85 -62 -56 -126
-82 -286 -114 -250 -50 -266 -70 -353 -439 -17 -71 -40 -141 -50 -155 -40 -54
-150 -49 -184 8 -9 15 -33 93 -52 172 -23 95 -49 173 -76 227 -68 138 -144
184 -334 202 -92 8 -115 14 -169 44 -208 114 -107 253 230 316 60 12 137 31
172 42 56 19 64 25 85 68 26 51 63 180 97 336 37 174 55 201 132 191 27 -3 60
-13 74 -21z m611 -3740 c288 -720 513 -1306 510 -1328 -3 -22 -6 -22 -143 -21
-216 2 -225 9 -296 224 -23 69 -45 129 -50 134 -10 11 -326 -10 -365 -24 -50
-19 -71 -48 -115 -163 -56 -147 -80 -172 -173 -182 -71 -8 -236 1 -248 13 -22
22 485 1375 647 1730 l39 84 17 -34 c9 -18 89 -213 177 -433z m-2088 38 l0
-356 173 7 c94 3 211 9 258 12 l85 7 12 340 c7 187 14 342 16 344 4 4 299 -17
304 -22 6 -5 21 -1010 22 -1388 l0 -349 -87 7 c-49 4 -128 10 -178 13 l-90 7
-11 300 c-7 165 -12 319 -13 343 l-1 42 -245 0 -245 0 -2 -352 -3 -353 -167
-3 -168 -2 0 880 0 880 170 0 170 0 0 -357z m3426 347 c249 -21 349 -56 457
-165 74 -73 135 -182 168 -301 30 -105 34 -348 7 -434 -23 -73 -78 -163 -161
-260 l-69 -81 62 -145 c73 -172 120 -307 120 -346 0 -36 -26 -47 -129 -55
-100 -7 -152 7 -189 53 -16 19 -65 103 -108 185 -50 96 -91 162 -113 181 -31
28 -39 30 -92 26 -98 -7 -112 -36 -124 -248 -10 -179 12 -160 -180 -160 l-165
0 0 880 0 880 194 0 c106 0 251 -5 322 -10z m2127 -9 c15 -6 27 -18 27 -27 0
-39 -269 -823 -430 -1256 -90 -240 -183 -439 -221 -474 -21 -19 -22 -19 -56
21 -72 82 -186 356 -433 1040 -152 422 -241 686 -233 698 7 12 332 2 345 -11
5 -5 47 -116 94 -248 93 -261 221 -590 253 -651 l19 -38 16 37 c21 50 93 273
160 498 106 357 124 391 215 421 33 11 208 3 244 -10z m1292 0 c27 -6 54 -16
59 -21 14 -14 10 -62 -15 -212 l-22 -128 -288 0 -289 0 0 -165 0 -165 188 -2
187 -3 3 -70 c5 -106 -7 -212 -27 -236 -15 -19 -36 -24 -146 -35 -186 -19
-187 -20 -200 -221 l-7 -103 316 0 316 0 -2 -187 -3 -188 -502 -3 -503 -2 0
881 0 882 443 -6 c254 -3 463 -10 492 -16z m4235 -171 l0 -190 -290 0 -290 0
0 -165 0 -165 143 0 c78 0 159 -5 181 -11 43 -12 41 6 17 -149 -6 -36 -11 -90
-11 -121 0 -85 -13 -93 -167 -99 -163 -7 -163 -6 -163 -166 0 -63 1 -114 3
-115 1 -1 125 -7 275 -14 151 -7 276 -16 279 -18 6 -7 31 -340 26 -349 -2 -5
-220 -8 -484 -8 l-479 0 0 613 c1 584 11 1063 25 1099 4 10 17 20 28 24 39 12
266 21 590 22 l317 2 0 -190z m1114 161 c148 -26 232 -68 317 -158 119 -127
178 -275 186 -468 9 -209 -39 -348 -177 -517 l-71 -86 75 -170 c76 -174 106
-258 106 -299 0 -35 -39 -46 -145 -40 -170 10 -204 34 -295 207 -68 129 -103
166 -165 176 -51 7 -113 0 -128 -15 -16 -16 -25 -104 -26 -240 l-1 -124 -62 6
c-35 4 -113 9 -175 13 l-111 7 -6 51 c-9 89 -19 1295 -11 1470 l7 168 33 14
c61 25 159 33 350 29 124 -3 228 -12 299 -24z m-4211 4 c218 -46 387 -208 387
-369 0 -76 -16 -102 -69 -111 -60 -10 -147 12 -236 60 -103 56 -188 72 -287
56 -133 -22 -228 -97 -228 -181 0 -79 94 -120 345 -150 306 -37 446 -132 520
-353 34 -104 35 -233 1 -329 -63 -180 -229 -318 -433 -364 -103 -23 -273 -16
-363 15 -179 61 -390 243 -390 336 0 41 24 62 129 111 123 59 141 58 226 -16
99 -86 212 -117 323 -90 59 14 128 68 148 117 18 42 18 125 -1 168 -18 44 -41
53 -185 71 -63 7 -155 19 -205 25 -181 23 -304 80 -376 176 -57 77 -71 124
-76 253 -8 190 31 307 136 410 85 83 226 149 371 173 58 10 200 6 263 -8z
m1550 8 l277 -6 0 -169 c0 -153 -2 -168 -17 -169 -10 0 -97 -6 -193 -12 l-175
-12 -5 -685 -5 -685 -167 -3 -168 -2 -2 687 -3 688 -50 2 c-145 8 -278 24
-304 37 -39 21 -53 66 -55 177 -1 104 11 123 91 145 56 15 346 18 776 7z"/>
<path d="M6111 1873 c-30 -38 -55 -127 -42 -151 13 -24 68 -34 116 -21 32 9
35 13 35 47 -1 57 -50 152 -80 152 -5 0 -18 -12 -29 -27z"/>
<path d="M7474 2379 c3 -13 7 -109 11 -214 3 -104 8 -229 11 -277 l7 -88 51 0
c87 1 194 18 246 41 67 29 142 111 161 176 39 134 -23 303 -130 355 -40 20
-66 23 -204 26 l-158 4 5 -23z"/>
<path d="M16100 2115 l0 -335 113 0 c133 0 201 17 253 62 70 62 102 176 90
326 -10 134 -47 196 -136 227 -38 14 -268 55 -307 55 -10 0 -13 -74 -13 -335z"/>
</g>
</svg>
