<?xml version="1.0" standalone="no"?>
<!DOCTYPE svg PUBLIC "-//W3C//DTD SVG 20010904//EN"
 "http://www.w3.org/TR/2001/REC-SVG-20010904/DTD/svg10.dtd">
<svg version="1.0" xmlns="http://www.w3.org/2000/svg"
 width="1024.000000pt" height="1024.000000pt" viewBox="0 0 1024.000000 1024.000000"
 preserveAspectRatio="xMidYMid meet">

<g transform="translate(0.000000,1024.000000) scale(0.100000,-0.100000)"
fill="#000000" stroke="none">
<path d="M5080 8083 c-196 -16 -442 -69 -625 -133 -49 -18 -157 -65 -240 -104
-479 -231 -869 -628 -1082 -1099 -364 -803 -255 -1666 296 -2360 320 -402 785
-682 1306 -786 162 -32 258 -41 460 -41 380 0 673 69 1030 240 344 166 689
480 898 818 250 405 374 891 337 1332 -36 441 -194 865 -448 1203 -85 113
-290 328 -391 411 -173 142 -481 315 -686 386 -139 48 -339 98 -455 114 -113
15 -327 26 -400 19z m319 -454 c64 -32 111 -85 111 -125 0 -17 7 -22 40 -27
108 -14 175 -140 131 -245 l-13 -32 -17 32 c-21 43 -53 58 -126 58 -99 0 -105
-4 -105 -64 0 -28 11 -82 24 -121 22 -64 23 -72 9 -100 -22 -43 -82 -103 -128
-128 -33 -18 -56 -22 -140 -22 -92 0 -104 2 -153 30 -139 76 -189 224 -143
419 28 115 71 194 141 259 107 99 251 125 369 66z m-1553 -345 c51 -29 166
-92 255 -140 153 -81 196 -105 370 -205 88 -51 112 -107 69 -162 -27 -34 -70
-43 -112 -21 -57 29 -278 165 -284 175 -3 5 -17 -5 -32 -22 -30 -37 -78 -59
-124 -59 -98 0 -174 111 -139 203 9 23 4 27 -96 82 -141 78 -163 97 -163 144
0 40 28 75 65 83 28 6 85 -17 191 -78z m2919 51 c30 -29 33 -83 8 -114 -10
-12 -70 -50 -133 -85 -76 -42 -114 -68 -111 -77 13 -41 11 -109 -3 -137 -18
-36 -88 -72 -137 -72 -40 0 -109 37 -124 66 -6 13 -14 17 -20 12 -6 -5 -77
-48 -160 -96 -173 -100 -209 -108 -252 -58 -20 24 -24 37 -19 64 7 48 27 66
126 119 47 25 207 114 355 196 398 222 422 231 470 182z m-1947 -381 c22 -25
22 -29 24 -332 3 -399 4 -373 -22 -394 -36 -29 -96 -24 -131 11 l-29 29 0 324
c0 239 4 329 13 348 28 55 103 62 145 14z m875 -5 l28 -30 -3 -331 -3 -330
-28 -24 c-46 -39 -123 -27 -146 23 -15 32 -15 656 -1 683 16 29 61 51 95 45
17 -3 43 -19 58 -36z m699 -207 c26 -2 48 -9 48 -13 0 -26 -80 -87 -200 -152
l-135 -74 -7 -46 c-12 -88 -71 -133 -165 -125 -98 8 -153 93 -119 183 25 65
74 100 142 101 29 0 59 6 67 12 8 7 69 43 137 81 121 68 122 68 153 53 17 -8
52 -17 79 -20z m-2670 -12 c37 -37 39 -42 37 -93 -1 -29 1 -58 5 -65 6 -11 42
-31 321 -185 61 -34 159 -90 220 -126 99 -58 114 -64 160 -62 90 3 157 -64
157 -158 0 -92 -61 -153 -155 -154 -35 -1 -63 5 -85 18 -38 22 -72 80 -72 122
0 24 -9 33 -62 62 -203 111 -556 316 -576 334 -12 12 -27 40 -33 63 -9 36 -16
43 -49 53 -52 15 -80 53 -80 105 0 76 51 125 129 126 37 0 49 -5 83 -40z m471
4 c39 -20 98 -54 129 -75 41 -29 67 -39 95 -39 84 0 153 -67 153 -149 0 -86
-60 -141 -152 -141 -81 0 -138 57 -138 138 l0 39 -141 74 c-138 72 -189 112
-189 149 0 15 6 17 43 13 26 -3 56 1 77 10 47 21 41 22 123 -19z m2638 -3 c34
-33 39 -45 39 -83 0 -57 -27 -93 -80 -109 -35 -11 -39 -15 -45 -57 -8 -55 -32
-80 -121 -126 -38 -19 -174 -95 -303 -169 l-234 -134 -13 -49 c-36 -143 -235
-163 -295 -30 -24 54 -24 90 2 143 27 55 80 85 147 82 44 -2 65 8 292 138 135
77 281 160 325 184 69 39 80 48 77 69 -14 121 26 179 127 180 37 0 49 -5 82
-39z m-1581 -46 c61 -32 78 -100 40 -163 -23 -37 -54 -52 -112 -52 -32 0 -47
7 -74 34 -29 29 -34 41 -34 81 0 40 5 52 34 81 28 28 42 34 75 34 23 0 55 -7
71 -15z m17 -396 c125 -61 124 -248 -3 -309 -90 -44 -194 -7 -235 84 -23 50
-24 85 -4 134 43 101 143 139 242 91z m-1579 -38 c16 -17 32 -43 35 -60 4 -18
14 -32 27 -36 11 -4 96 -48 188 -99 92 -52 195 -107 228 -124 61 -31 80 -47
99 -85 17 -36 154 -116 198 -116 77 -2 127 -47 127 -116 0 -51 -20 -80 -65
-95 -41 -13 -66 -7 -120 30 -110 76 -664 411 -803 486 -71 37 -92 65 -92 121
0 55 12 79 53 103 47 29 90 26 125 -9z m3136 10 c37 -25 55 -57 56 -99 0 -60
-24 -84 -184 -178 -270 -158 -549 -326 -665 -401 -63 -40 -125 -73 -139 -73
-13 0 -37 7 -52 17 -95 56 -42 203 73 203 51 0 183 77 217 126 20 31 56 55
170 117 275 149 360 200 360 216 2 73 99 115 164 72z m-3368 -394 c28 -26 37
-42 41 -77 13 -117 -133 -183 -217 -98 -80 79 -19 208 98 208 34 0 49 -6 78
-33z m3640 0 c63 -57 55 -155 -16 -192 -57 -29 -145 -15 -174 29 -57 88 4 196
112 196 34 0 49 -6 78 -33z m-2217 -41 c58 -30 147 -77 196 -105 50 -28 98
-51 108 -51 9 0 102 44 205 98 103 54 195 101 205 105 15 6 17 -4 17 -113 l0
-120 -52 -26 c-29 -15 -102 -55 -163 -89 -60 -34 -134 -74 -163 -89 l-53 -27
-72 39 c-40 22 -133 74 -207 115 l-135 75 -3 121 c-1 67 0 121 4 121 4 0 54
-24 113 -54z m-951 -140 c119 -62 138 -223 35 -304 l-33 -27 0 -201 0 -200 36
-35 c61 -59 82 -120 64 -188 -33 -124 -189 -167 -281 -78 -60 59 -74 129 -40
203 10 23 33 51 50 63 l31 22 0 207 0 207 -34 22 c-49 31 -80 102 -72 161 7
57 48 118 96 143 41 22 110 25 148 5z m2670 -5 c46 -23 67 -46 87 -94 32 -77
11 -154 -56 -208 l-39 -31 0 -204 0 -204 25 -16 c14 -9 37 -37 52 -61 21 -37
25 -53 21 -99 -8 -94 -63 -146 -161 -152 -53 -3 -67 0 -97 20 -53 36 -80 83
-80 140 0 64 20 109 64 144 l36 29 0 203 0 202 -39 36 c-22 19 -45 51 -52 71
-49 150 103 293 239 224z m-3189 -176 c32 -31 0 -105 -46 -105 -25 0 -54 21
-63 46 -24 62 59 106 109 59z m3645 4 c63 -50 -8 -140 -73 -92 -33 26 -39 65
-12 92 27 27 51 27 85 0z m-2074 -123 c106 -58 197 -106 203 -106 5 0 71 32
146 72 154 81 268 138 276 138 3 0 4 -53 3 -117 l-3 -117 -95 -54 c-245 -139
-280 -154 -341 -150 -47 3 -79 16 -200 82 -79 43 -159 90 -176 103 l-33 24 0
121 c0 98 3 119 14 115 7 -3 100 -53 206 -111z m-401 -22 c2 -1 1 -14 -3 -28
-5 -19 -31 -40 -106 -83 -54 -32 -99 -62 -99 -68 -1 -5 38 -30 86 -55 48 -25
123 -66 167 -91 45 -25 113 -63 151 -84 39 -21 126 -69 195 -108 69 -39 146
-82 171 -96 l45 -25 90 49 c49 26 161 89 249 140 88 50 231 131 318 179 86 48
157 91 157 94 0 4 -36 27 -80 51 -92 51 -107 65 -116 109 l-6 32 84 0 c80 0
88 -2 146 -37 33 -21 77 -53 96 -71 l36 -32 0 -88 c0 -79 -2 -91 -22 -109 -13
-11 -115 -72 -228 -136 -113 -63 -299 -169 -415 -236 -233 -134 -281 -152
-362 -132 -26 7 -124 56 -218 110 -93 54 -276 158 -405 231 -129 73 -250 146
-267 163 -32 30 -33 33 -33 111 0 90 6 100 75 153 78 60 106 68 202 64 48 -1
90 -5 92 -7z m-1097 -171 c18 -16 24 -59 10 -79 -13 -19 -50 -34 -69 -27 -51
18 -67 59 -37 101 18 27 69 30 96 5z m3510 0 c40 -36 10 -103 -45 -103 -58 0
-88 60 -50 102 20 22 70 23 95 1z m-2594 -402 c2 -6 -7 -15 -19 -19 -22 -9
-22 -10 16 -34 42 -27 480 -279 678 -391 l118 -66 32 20 c18 11 201 116 407
233 206 117 376 218 377 223 2 5 -6 14 -17 19 -19 8 -14 13 44 43 36 18 66 38
66 43 0 5 4 7 9 4 5 -4 11 -1 13 6 2 6 12 9 21 5 15 -5 17 -23 17 -120 0 -105
-2 -115 -22 -134 -22 -20 -142 -90 -222 -131 l-40 -19 80 -46 c61 -36 89 -47
123 -47 58 0 108 -32 132 -84 32 -70 20 -118 -41 -170 -41 -34 -123 -37 -164
-5 -33 26 -56 69 -56 106 0 26 -11 35 -102 90 l-103 61 -55 -31 c-30 -17 -131
-75 -223 -130 -197 -116 -241 -136 -284 -137 -39 0 -155 59 -383 197 -145 87
-168 98 -185 88 -11 -7 -57 -34 -102 -61 -67 -38 -83 -52 -83 -71 0 -73 -58
-133 -127 -133 -87 0 -143 55 -143 142 0 74 66 138 143 138 32 0 187 75 187
90 0 4 -52 36 -116 71 -159 87 -164 94 -164 223 0 65 4 106 12 114 9 9 30 2
92 -32 44 -24 82 -49 84 -55z"/>
<path d="M5275 7508 c-28 -16 -35 -28 -35 -64 0 -58 68 -86 110 -44 29 29 26
74 -6 99 -30 24 -41 25 -69 9z"/>
<path d="M3655 3001 c-46 -19 -50 -34 -55 -235 l-5 -190 -106 124 c-58 69
-128 152 -156 185 -94 112 -98 115 -147 115 -77 0 -76 6 -76 -385 0 -325 1
-342 20 -362 10 -12 29 -24 40 -28 28 -9 88 12 100 35 6 11 10 106 10 217 l1
198 27 -31 c15 -17 96 -112 180 -212 85 -101 165 -190 178 -199 19 -12 32 -14
57 -7 56 17 57 25 51 394 -6 324 -7 336 -28 357 -25 26 -63 36 -91 24z"/>
<path d="M4761 2998 c-95 -27 -168 -114 -178 -212 -5 -47 -2 -64 21 -109 34
-70 76 -99 200 -136 109 -33 136 -51 136 -92 0 -44 -36 -62 -113 -57 -51 3
-74 10 -116 37 -48 31 -54 33 -77 20 -39 -20 -67 -65 -60 -95 7 -28 70 -77
134 -105 190 -83 412 31 412 211 -1 119 -59 180 -219 230 -133 42 -141 47
-141 86 0 23 8 38 26 53 39 31 95 27 166 -11 68 -36 77 -34 122 30 26 37 27
42 13 62 -20 29 -78 68 -129 86 -46 16 -146 17 -197 2z"/>
<path d="M3946 2979 l-26 -20 0 -338 c0 -288 2 -340 16 -359 15 -22 18 -22
263 -22 281 0 281 0 281 77 0 72 -15 77 -216 81 l-174 4 0 69 0 69 135 0 c78
0 144 5 159 11 51 23 55 103 7 128 -11 6 -80 11 -160 11 l-141 0 0 75 0 75
175 0 c162 0 177 2 195 20 31 31 27 93 -6 119 -25 20 -39 21 -254 21 -215 0
-229 -1 -254 -21z"/>
<path d="M5196 2979 c-33 -26 -37 -88 -6 -119 17 -17 33 -20 125 -20 l105 0 0
-284 c0 -258 2 -286 18 -306 33 -41 123 -25 142 26 6 14 10 147 10 295 l0 269
96 0 c52 0 104 4 114 10 26 14 44 73 31 99 -27 49 -37 51 -332 51 -264 0 -277
-1 -303 -21z"/>
<path d="M5942 2977 c-22 -23 -22 -28 -22 -359 0 -316 1 -337 19 -359 l19 -24
247 0 247 0 19 24 c21 25 25 71 9 101 -17 31 -67 40 -231 40 l-159 0 0 70 0
70 140 0 c80 0 149 5 163 11 52 23 54 89 5 123 -18 13 -50 16 -165 16 l-143 0
0 75 0 75 180 0 c167 0 181 1 200 20 30 30 26 76 -9 111 l-29 29 -234 0 c-232
0 -235 0 -256 -23z"/>
<path d="M6645 2976 l-25 -25 0 -338 c0 -368 1 -374 56 -387 34 -9 91 10 104
34 6 10 10 64 10 119 l0 101 58 0 57 -1 75 -122 76 -122 61 -3 c54 -3 63 0 77
20 24 33 20 46 -30 123 -48 73 -88 145 -82 150 2 1 22 14 45 28 29 18 49 42
68 81 61 124 6 279 -121 342 -33 16 -65 19 -221 22 l-183 3 -25 -25z m367
-175 c26 -29 30 -39 25 -75 -4 -27 -15 -49 -32 -63 -23 -20 -37 -23 -121 -23
l-94 0 0 101 0 101 96 -4 c94 -3 96 -3 126 -37z"/>
</g>
</svg>
