<?xml version="1.0" standalone="no"?>
<!DOCTYPE svg PUBLIC "-//W3C//DTD SVG 20010904//EN"
 "http://www.w3.org/TR/2001/REC-SVG-20010904/DTD/svg10.dtd">
<svg version="1.0" xmlns="http://www.w3.org/2000/svg"
 width="583.000000pt" height="527.000000pt" viewBox="0 0 583.000000 527.000000"
 preserveAspectRatio="xMidYMid meet">

<g transform="translate(0.000000,527.000000) scale(0.100000,-0.100000)"
fill="#000000" stroke="none">
<path d="M634 5260 c-163 -24 -357 -132 -462 -258 -67 -81 -105 -151 -141
-259 l-31 -91 0 -1959 c0 -1949 0 -1959 21 -2033 80 -290 305 -524 581 -604
l88 -25 644 -3 645 -3 53 51 53 51 135 22 c217 37 582 145 617 183 44 49 50
121 14 169 -27 36 -4 50 39 24 13 -8 13 -6 1 8 -12 15 -10 18 15 27 15 6 33 9
41 6 7 -3 13 -1 13 4 0 5 14 17 32 26 26 14 35 14 52 4 18 -11 19 -11 9 1 -10
13 -2 20 53 47 36 18 63 28 59 22 -8 -13 -5 -13 33 1 17 6 33 17 36 26 6 13 3
13 -20 -2 -14 -9 -28 -15 -30 -12 -2 2 19 16 47 32 29 15 49 23 45 17 -5 -8
-2 -10 8 -6 9 3 15 9 14 12 -2 19 4 23 17 12 13 -11 14 -10 9 3 -3 10 2 20 15
26 27 15 31 14 31 -6 0 -15 2 -16 10 -3 5 9 5 17 0 20 -11 7 155 120 176 120
8 0 13 4 11 8 -1 5 13 21 31 36 17 15 32 23 32 17 0 -6 -5 -11 -11 -11 -5 0
-7 -5 -4 -10 9 -15 25 -2 25 20 0 22 48 63 63 53 5 -3 7 -1 3 5 -10 17 13 25
31 10 15 -11 15 -11 6 6 -10 18 10 42 99 116 10 8 37 33 60 55 23 22 46 39 51
37 4 -1 6 2 2 8 -3 5 15 31 41 57 26 27 42 41 36 32 -9 -12 -9 -16 2 -16 9 0
13 8 10 20 -2 13 14 41 44 78 26 32 60 76 76 98 16 22 32 38 36 36 4 -3 7 3 6
13 0 10 5 16 14 14 8 -2 12 0 8 3 -11 11 11 47 24 39 6 -4 8 -3 4 4 -8 14 48
104 59 94 5 -4 5 -1 1 5 -8 15 17 56 28 46 4 -4 4 1 0 11 -6 15 -4 17 6 11 8
-5 11 -4 6 3 -10 17 36 105 47 89 6 -8 7 -6 3 6 -6 20 84 228 96 221 4 -3 5 1
3 9 -7 17 22 87 44 105 9 7 10 10 2 6 -10 -5 -13 -3 -9 7 3 8 27 78 54 156 44
131 49 141 65 127 43 -39 125 -19 164 39 19 29 58 241 89 477 l22 175 32 -82
c119 -306 162 -532 162 -843 0 -374 -61 -642 -222 -980 -81 -171 -197 -348
-341 -520 -201 -240 -421 -414 -725 -572 -64 -34 -119 -63 -122 -65 -3 -3 4
-9 15 -16 11 -6 43 -36 72 -66 l52 -56 633 0 c726 1 698 -2 895 96 203 100
363 294 423 512 20 73 20 93 18 2078 l-3 2004 -33 79 c-102 247 -321 425 -573
465 -75 13 -4502 13 -4585 1z m3954 -407 c83 -39 131 -118 132 -216 1 -149
-150 -263 -300 -227 -144 35 -221 194 -159 330 61 134 188 179 327 113z m673
17 c48 -13 118 -75 140 -124 24 -54 24 -148 0 -201 -34 -75 -141 -145 -223
-145 -97 0 -195 76 -223 173 -44 153 64 307 215 307 30 0 71 -5 91 -10z
m-2021 -366 c299 -43 594 -146 849 -296 l104 -62 -154 -32 c-212 -44 -397 -92
-440 -116 -48 -27 -63 -56 -56 -110 7 -49 35 -78 77 -78 15 0 92 15 171 34
308 74 732 128 806 103 83 -28 95 -92 96 -482 0 -391 -31 -623 -129 -963 l-15
-52 -607 600 c-334 330 -617 607 -629 615 -20 14 -28 14 -78 0 -96 -28 -326
-124 -432 -180 -491 -260 -938 -716 -1187 -1213 -88 -175 -196 -453 -196 -503
0 -10 275 -293 615 -633 338 -339 615 -620 615 -625 0 -12 -262 -86 -430 -121
-309 -66 -539 -89 -785 -80 -156 6 -175 13 -206 72 -16 32 -19 59 -19 185 0
237 32 490 100 790 28 120 29 136 17 166 -18 43 -56 67 -106 67 -49 0 -95 -40
-109 -96 -27 -107 -72 -314 -72 -331 -1 -17 -2 -17 -16 2 -28 37 -122 219
-158 306 -46 111 -109 328 -131 449 -26 144 -32 538 -11 695 67 483 266 893
605 1247 120 126 214 204 361 301 265 174 631 307 950 346 47 6 101 13 120 15
71 9 368 -3 480 -20z m-162 -1328 c15 -8 53 -41 85 -74 l58 -59 67 67 c50 50
76 69 104 74 79 15 159 -62 142 -137 -4 -20 -32 -58 -77 -105 -41 -41 -67 -76
-61 -80 5 -5 35 -30 66 -56 68 -57 86 -99 69 -157 -17 -57 -61 -89 -123 -89
-49 0 -51 1 -120 74 l-70 74 -107 -110 -107 -111 73 -71 c62 -60 73 -77 73
-105 0 -78 -54 -131 -131 -131 -41 0 -48 4 -112 71 -60 62 -70 69 -85 58 -34
-26 -204 -195 -254 -252 l-51 -59 66 -63 c49 -47 67 -71 72 -99 18 -94 -77
-172 -165 -136 -16 7 -55 41 -86 76 -30 35 -59 64 -62 64 -4 0 -27 -25 -52
-54 -58 -71 -109 -100 -162 -93 -46 6 -75 29 -95 76 -22 51 -8 85 65 162 l65
70 -62 63 c-54 55 -64 70 -68 108 -7 57 15 100 61 122 65 31 93 21 181 -64
l60 -59 164 161 164 160 -71 69 c-55 52 -72 76 -78 105 -15 79 61 154 141 140
32 -6 53 -21 106 -76 l65 -68 108 104 108 105 -66 69 c-77 82 -91 123 -60 180
20 37 73 70 112 70 13 0 35 -6 50 -14z"/>
<path d="M3770 1076 c0 -3 9 -10 20 -16 11 -6 20 -8 20 -6 0 3 -9 10 -20 16
-11 6 -20 8 -20 6z"/>
<path d="M3463 847 c-18 -12 -33 -26 -33 -30 0 -5 4 -6 9 -3 5 4 12 0 15 -6 3
-7 4 -4 3 7 -1 11 3 19 8 19 6 -1 19 7 29 17 26 25 9 23 -31 -4z"/>
<path d="M3440 736 c0 -2 7 -7 16 -10 8 -3 12 -2 9 4 -6 10 -25 14 -25 6z"/>
<path d="M3259 693 c-13 -16 -12 -17 4 -4 16 13 21 21 13 21 -2 0 -10 -8 -17
-17z"/>
<path d="M3102 616 c7 -8 15 -12 17 -11 5 6 -10 25 -20 25 -5 0 -4 -6 3 -14z"/>
<path d="M3079 593 c-13 -16 -12 -17 4 -4 16 13 21 21 13 21 -2 0 -10 -8 -17
-17z"/>
<path d="M2980 575 c-8 -9 -8 -15 -2 -15 6 0 13 6 15 13 4 10 6 10 6 0 1 -7 5
-13 11 -13 5 0 7 7 4 15 -4 8 -10 15 -14 15 -4 0 -13 -7 -20 -15z"/>
<path d="M3108 573 c7 -3 16 -2 19 1 4 3 -2 6 -13 5 -11 0 -14 -3 -6 -6z"/>
</g>
</svg>
